<svg width="128" height="171" viewBox="0 0 128 171" fill="none" xmlns="http://www.w3.org/2000/svg">
<path d="M127.049 148.958L126.341 150.854L119.988 148.483L120.695 146.587L127.049 148.958ZM118.876 145.827L118.026 147.664L111.872 144.815L112.722 142.979L118.876 145.827ZM110.902 142.071L109.945 143.854L103.969 140.649L104.925 138.866L110.902 142.071ZM103.127 137.844L102.084 139.577L96.2736 136.082L97.3167 134.348L103.127 137.844ZM95.5542 133.233L94.435 134.919L88.7856 131.168L89.9048 129.482L95.5542 133.233ZM88.193 128.29L87 129.925L81.5228 125.926L82.7158 124.292L88.193 128.29ZM81.0371 123.017L79.7826 124.604L74.4618 120.4L75.7163 118.813L81.0371 123.017ZM74.0929 117.477L72.7764 119.014L67.6267 114.602L68.9431 113.065L74.0929 117.477ZM67.3643 111.661L65.9921 113.148L61.0083 108.55L62.3804 107.063L67.3643 111.661ZM60.8611 105.605L59.4322 107.038L54.6307 102.249L56.0596 100.816L60.8611 105.605ZM54.5821 99.292L53.1055 100.675L48.4691 95.7268L49.9457 94.3434L54.5821 99.292ZM48.5352 92.7785L47.0064 94.104L42.5641 88.9804L44.0929 87.6549L48.5352 92.7785ZM42.7358 86.0316L41.1604 87.3014L36.9049 82.0216L38.4803 80.7518L42.7358 86.0316ZM37.1766 79.0768L35.5589 80.2923L31.4852 74.871L33.1029 73.6555L37.1766 79.0768ZM31.857 71.9373L30.1989 73.0971L26.3121 67.5404L27.9701 66.3806L31.857 71.9373ZM26.7903 64.6266L25.091 65.7251L21.4096 60.0301L23.1089 58.9316L26.7903 64.6266ZM21.991 57.1331L20.2538 58.1707L16.7767 52.3488L18.5138 51.3112L21.991 57.1331ZM17.455 49.4691L15.6841 50.4481L12.4033 44.5133L14.1741 43.5344L17.455 49.4691ZM13.1769 41.6576L11.3745 42.5772L8.29239 36.5369L10.0948 35.6172L13.1769 41.6576ZM9.15964 33.7076L7.32802 34.5676L4.44612 28.4292L6.27774 27.5692L9.15964 33.7076ZM5.40501 25.6289L3.54641 26.4289L0.865518 20.2001L2.72412 19.4001L5.40501 25.6289Z" fill="#A255FF"/>
</svg>
