<svg width="104" height="103" viewBox="0 0 104 103" fill="none" xmlns="http://www.w3.org/2000/svg">
<path d="M44.5026 1.53715L42.5303 1.08495L41.0148 7.69469L42.9871 8.14689L44.5026 1.53715ZM42.6575 10.0055L40.6501 9.75134L39.7983 16.4789L41.8057 16.733L42.6575 10.0055ZM41.6306 18.7034L39.6098 18.5994L39.2613 25.3717L41.2821 25.4756L41.6306 18.7034ZM41.2493 27.4702L39.2262 27.5075L39.3513 34.2876L41.3744 34.2503L41.2493 27.4702ZM41.4773 36.2583L39.461 36.4279L40.0296 43.1853L42.0459 43.0156L41.4773 36.2583ZM42.2788 45.021L40.2772 45.3178L41.2716 52.0257L43.2732 51.729L42.2788 45.021ZM43.6329 53.7092L41.6548 54.1353L43.0829 60.7645L45.0609 60.3384L43.6329 53.7092ZM45.5483 62.2983L43.601 62.8481L45.4438 69.3742L47.3911 68.8243L45.5483 62.2983ZM48.0008 70.7466L46.0925 71.4195L48.3475 77.8148L50.2558 77.1419L48.0008 70.7466ZM50.9865 79.0198L49.1253 79.8137L51.7859 86.0512L53.6471 85.2574L50.9865 79.0198ZM54.4968 87.0847L52.6903 87.9962L55.7449 94.0505L57.5514 93.139L54.4968 87.0847ZM58.517 94.9106L56.7719 95.9347L60.204 101.783L61.9491 100.759L58.517 94.9106Z" fill="#A255FF"/>
</svg>
