<svg width="164" height="191" viewBox="0 0 164 191" fill="none" xmlns="http://www.w3.org/2000/svg">
<path d="M-80.0642 271.173L-79.3628 273.071L-73.002 270.72L-73.7035 268.822L-80.0642 271.173ZM-71.7314 268.053L-70.9628 269.925L-64.6899 267.349L-65.4585 265.477L-71.7314 268.053ZM-63.5022 264.637L-62.6739 266.483L-56.4869 263.707L-57.3152 261.86L-63.5022 264.637ZM-55.3844 260.957L-54.4984 262.776L-48.4019 259.807L-49.288 257.988L-55.3844 260.957ZM-47.3712 257.021L-46.4358 258.816L-40.4227 255.681L-41.3581 253.887L-47.3712 257.021ZM-39.4596 252.867L-38.4799 254.637L-32.5465 251.354L-33.5262 249.583L-39.4596 252.867ZM-31.6495 248.516L-30.6282 250.263L-24.7741 246.84L-25.7953 245.093L-31.6495 248.516ZM-23.9408 243.981L-22.8802 245.704L-17.1051 242.15L-18.1656 240.426L-23.9408 243.981ZM-16.3335 239.271L-15.2357 240.971L-9.53925 237.292L-10.637 235.592L-16.3335 239.271ZM-8.83105 234.397L-7.69623 236.073L-2.08186 232.269L-3.21669 230.594L-8.83105 234.397ZM-1.44065 229.361L-0.267712 231.01L5.25798 227.079L4.08505 225.43L-1.44065 229.361ZM5.84075 224.154L7.0472 225.778L12.4912 221.735L11.2848 220.111L5.84075 224.154ZM13.0159 218.798L14.2543 220.398L19.617 216.248L18.3785 214.648L13.0159 218.798ZM20.0852 213.3L21.3542 214.876L26.636 210.623L25.367 209.047L20.0852 213.3ZM27.0494 207.667L28.3476 209.219L33.5492 204.868L32.2511 203.316L27.0494 207.667ZM33.8982 201.908L35.2294 203.432L40.3365 198.971L39.0054 197.447L33.8982 201.908ZM40.6292 196L41.9896 197.498L47.0095 192.939L45.6492 191.441L40.6292 196ZM47.2425 189.965L48.6325 191.435L53.5605 186.777L52.1705 185.306L47.2425 189.965ZM53.7331 183.799L55.1526 185.241L59.9852 180.484L58.5657 179.042L53.7331 183.799ZM60.1012 177.501L61.548 178.916L66.2889 174.067L64.8421 172.652L60.1012 177.501ZM66.3465 171.083L67.8207 172.469L72.4658 167.529L70.9916 166.143L66.3465 171.083ZM72.4637 164.546L73.9653 165.902L78.5108 160.87L77.0093 159.513L72.4637 164.546ZM78.4557 157.883L79.9813 159.212L84.436 154.099L82.9105 152.77L78.4557 157.883ZM84.3154 151.122L85.8696 152.417L90.2119 147.209L88.6577 145.913L84.3154 151.122ZM90.038 144.227L91.6153 145.494L95.863 140.208L94.2857 138.941L90.038 144.227ZM95.6326 137.232L97.2336 138.469L101.381 133.104L99.7795 131.867L95.6326 137.232ZM101.088 130.137L102.714 131.34L106.748 125.889L105.121 124.686L101.088 130.137ZM106.401 122.923L108.049 124.096L111.982 118.572L110.334 117.399L106.401 122.923ZM111.581 115.613L113.251 116.756L117.082 111.161L115.413 110.018L111.581 115.613ZM116.618 108.217L118.312 109.324L122.022 103.648L120.328 102.541L116.618 108.217ZM121.502 100.707L123.216 101.783L126.821 96.0393L125.107 94.9636L121.502 100.707ZM126.248 93.1085L127.981 94.1525L131.48 88.3434L129.746 87.2995L126.248 93.1085ZM130.853 85.4239L132.605 86.4356L135.995 80.5628L134.243 79.5511L130.853 85.4239ZM135.307 77.6622L137.08 78.6365L140.346 72.6932L138.572 71.7189L135.307 77.6622ZM139.604 69.8005L141.395 70.7422L144.55 64.7399L142.759 63.7983L139.604 69.8005ZM143.755 61.8614L145.563 62.77L148.608 56.7108L146.8 55.8022L143.755 61.8614ZM147.76 53.8474L149.584 54.7227L152.517 48.6086L150.693 47.7334L147.76 53.8474ZM151.617 45.7611L153.457 46.6028L156.278 40.4361L154.438 39.5944L151.617 45.7611ZM155.322 37.6095L157.179 38.4147L159.877 32.1934L158.021 31.3882L155.322 37.6095ZM158.868 29.3832L160.739 30.1535L163.321 23.8829L161.45 23.1126L158.868 29.3832Z" fill="#A255FF"/>
</svg>
