<svg width="184" height="169" viewBox="0 0 184 169" fill="none" xmlns="http://www.w3.org/2000/svg">
<path d="M125.758 1.80822L127.78 1.71795L128.082 8.49245L126.061 8.58272L125.758 1.80822ZM126.073 10.5543L128.096 10.6183L127.881 17.3962L125.859 17.3322L126.073 10.5543ZM125.735 19.3629L127.75 19.5456L127.138 26.2991L125.123 26.1165L125.735 19.3629ZM124.885 28.1709L126.889 28.4528L125.944 35.1679L123.941 34.8861L124.885 28.1709ZM123.604 36.9441L125.593 37.3148L124.351 43.9813L122.362 43.6105L123.604 36.9441ZM121.934 45.6522L123.905 46.111L122.367 52.7157L120.397 52.2569L121.934 45.6522ZM119.88 54.3006L121.831 54.8342L120.043 61.3755L118.091 60.8419L119.88 54.3006ZM117.497 62.8585L119.426 63.469L117.38 69.9342L115.451 69.3236L117.497 62.8585ZM114.776 71.3258L116.681 72.0069L114.399 78.3924L112.493 77.7112L114.776 71.3258ZM111.746 79.6796L113.624 80.4343L111.094 86.7262L109.217 85.9715L111.746 79.6796ZM108.392 87.9275L110.243 88.7454L107.502 94.948L105.651 94.1301L108.392 87.9275ZM104.762 96.0403L106.58 96.9289L103.602 103.021L101.784 102.133L104.762 96.0403ZM100.821 104.017L102.606 104.97L99.4112 110.951L97.6264 109.998L100.821 104.017ZM96.5947 111.853L98.3461 112.866L94.95 118.736L93.1986 117.723L96.5947 111.853ZM92.1046 119.541L93.8205 120.614L90.2267 126.364L88.5108 125.292L92.1046 119.541ZM87.358 127.064L89.0336 128.198L85.2322 133.814L83.5566 132.679L87.358 127.064ZM82.3386 134.412L83.9729 135.605L79.9748 141.082L78.3405 139.889L82.3386 134.412ZM77.0593 141.584L78.6529 142.831L74.4741 148.172L72.8805 146.925L77.0593 141.584ZM71.5432 148.576L73.0946 149.876L68.7409 155.075L67.1895 153.776L71.5432 148.576ZM65.7978 155.383L67.3056 156.733L62.7834 161.786L61.2756 160.436L65.7978 155.383ZM59.8312 161.998L61.2944 163.396L56.6103 168.3L55.1472 166.902L59.8312 161.998Z" fill="#A255FF"/>
</svg>
