<svg width="23" height="22" viewBox="0 0 23 22" fill="none" xmlns="http://www.w3.org/2000/svg">
<path d="M12.868 21.3788L11.4742 20.5778L14.6785 14.9702H19.4849C19.9098 14.9702 20.3173 14.8014 20.6178 14.501C20.9183 14.2005 21.0871 13.793 21.0871 13.3681V3.7552C21.0871 3.33028 20.9183 2.92277 20.6178 2.62231C20.3173 2.32185 19.9098 2.15305 19.4849 2.15305H3.46342C3.03851 2.15305 2.63099 2.32185 2.33053 2.62231C2.03007 2.92277 1.86127 3.33028 1.86127 3.7552V13.3681C1.86127 13.793 2.03007 14.2005 2.33053 14.501C2.63099 14.8014 3.03851 14.9702 3.46342 14.9702H10.6731V16.5724H3.46342C2.61359 16.5724 1.79856 16.2348 1.19764 15.6339C0.596719 15.0329 0.259125 14.2179 0.259125 13.3681V3.7552C0.259125 2.90537 0.596719 2.09034 1.19764 1.48942C1.79856 0.888498 2.61359 0.550903 3.46342 0.550903H19.4849C20.3347 0.550903 21.1498 0.888498 21.7507 1.48942C22.3516 2.09034 22.6892 2.90537 22.6892 3.7552V13.3681C22.6892 14.2179 22.3516 15.0329 21.7507 15.6339C21.1498 16.2348 20.3347 16.5724 19.4849 16.5724H15.6077L12.868 21.3788Z" fill="white"/>
<path d="M5.06557 5.35735H17.8828V6.9595H5.06557V5.35735ZM5.06557 10.1638H13.0763V11.7659H5.06557V10.1638Z" fill="white"/>
</svg>
