<svg width="24" height="24" viewBox="0 0 24 24" fill="none" xmlns="http://www.w3.org/2000/svg">
<g clip-path="url(#clip0_565_1533)">
<path d="M1.7695 19.8715C1.8735 21.149 2.851 22.1265 4.1285 22.2305C5.7425 22.3615 8.318 22.5 12 22.5C15.682 22.5 18.2575 22.3615 19.8715 22.2305C21.149 22.1265 22.1265 21.149 22.2305 19.8715C22.3615 18.2575 22.5 15.682 22.5 12C22.5 8.318 22.3615 5.7425 22.2305 4.1285C22.1265 2.851 21.149 1.8735 19.8715 1.7695C18.2575 1.6385 15.682 1.5 12 1.5C8.318 1.5 5.7425 1.6385 4.1285 1.7695C2.851 1.8735 1.8735 2.851 1.7695 4.1285C1.6385 5.7425 1.5 8.318 1.5 12C1.5 15.682 1.6385 18.2575 1.7695 19.8715Z" stroke="#3D246A" stroke-width="1.8" stroke-linecap="round" stroke-linejoin="round"/>
<path d="M14.758 22.472V15.02H17.5275C17.9715 15.02 18.371 14.7275 18.436 14.2885C18.5231 13.6722 18.5206 13.0465 18.4285 12.431C18.3645 12 17.9805 11.716 17.5445 11.716H14.758C14.758 9.21896 15.1735 8.85596 17.5155 8.81046C17.965 8.80146 18.368 8.50546 18.4335 8.06046C18.5435 7.31296 18.4995 6.65946 18.4305 6.20046C18.367 5.77546 17.9865 5.49946 17.5575 5.50296C13.418 5.53896 11.0605 6.02846 11.0605 11.716H8.91649C8.49949 11.716 8.12949 11.977 8.06649 12.389C7.99849 12.833 7.95749 13.4765 8.07099 14.259C8.13599 14.711 8.54299 15.02 8.99999 15.02H11.0605V22.4975" stroke="#3D246A" stroke-width="1.8" stroke-linecap="round" stroke-linejoin="round"/>
</g>
<defs>
<clipPath id="clip0_565_1533">
<rect width="24" height="24" fill="white"/>
</clipPath>
</defs>
</svg>
