<svg width="24" height="24" viewBox="0 0 24 24" fill="none" xmlns="http://www.w3.org/2000/svg">
<g clip-path="url(#clip0_565_1484)">
<path d="M23.849 14.91C23.609 17.85 21.119 20.13 18.149 20.1H14.999L8.99898 24V20.1L14.999 16.2H18.149C19.079 16.23 19.859 15.54 19.979 14.61C20.159 11.61 20.159 8.61 19.919 5.61C19.859 4.77 19.169 4.14 18.359 4.08C16.319 3.99 14.159 3.9 11.999 3.9C9.83898 3.9 7.67898 3.96 5.63898 4.11C4.79898 4.17 4.13898 4.8 4.07898 5.64C3.86898 8.64 3.83898 11.64 4.01898 14.64C4.10898 15.57 4.91898 16.23 5.84898 16.2H8.99898V20.1H5.84898C4.41791 20.1188 3.03313 19.5933 1.97488 18.6297C0.916643 17.6662 0.263979 16.3366 0.148979 14.91C-0.0610213 11.7 -0.0310213 8.52 0.208979 5.31C0.318872 3.97887 0.903432 2.73155 1.85611 1.7954C2.80878 0.859246 4.06613 0.296593 5.39898 0.21C7.49898 0.06 9.74898 0 11.999 0C14.249 0 16.499 0.06 18.629 0.24C19.9618 0.326593 21.2192 0.889246 22.1719 1.8254C23.1245 2.76156 23.7091 4.00887 23.819 5.34C24.029 8.52 24.059 11.73 23.849 14.91Z" fill="#3D246A"/>
</g>
<defs>
<clipPath id="clip0_565_1484">
<rect width="24" height="24" fill="white"/>
</clipPath>
</defs>
</svg>
