<svg width="25" height="24" viewBox="0 0 25 24" fill="none" xmlns="http://www.w3.org/2000/svg">
<g clip-path="url(#clip0_565_1558)">
<path d="M8.55998 5.10999C8.39293 5.01597 8.19621 4.98948 8.01023 5.03598C7.82425 5.08247 7.66314 5.19841 7.55998 5.35999L6.16998 7.62999C6.14574 7.66628 6.11306 7.69616 6.07475 7.71706C6.03643 7.73796 5.99362 7.74926 5.94998 7.74999H5.66998C5.59208 7.74836 5.51496 7.76571 5.44527 7.80056C5.37558 7.8354 5.31542 7.88669 5.26998 7.94999C5.22341 8.01209 5.19193 8.08418 5.17805 8.16055C5.16416 8.23692 5.16825 8.31547 5.18998 8.38999L6.68998 13.39C6.71878 13.4947 6.78156 13.5869 6.86844 13.652C6.95532 13.7172 7.06139 13.7517 7.16998 13.75H12.17C12.274 13.7492 12.3751 13.7161 12.4593 13.6551C12.5436 13.5942 12.6067 13.5085 12.64 13.41L14.31 8.40999C14.3353 8.33507 14.3425 8.25521 14.3309 8.17697C14.3194 8.09874 14.2894 8.02436 14.2436 7.95994C14.1977 7.89552 14.1372 7.8429 14.067 7.80641C13.9969 7.76991 13.9191 7.75057 13.84 7.74999H13.39C13.3463 7.74926 13.3035 7.73796 13.2652 7.71706C13.2269 7.69616 13.1942 7.66628 13.17 7.62999L11.81 5.35999C11.7065 5.18627 11.5383 5.06076 11.3424 5.01106C11.1464 4.96137 10.9387 4.99155 10.765 5.09499C10.5913 5.19842 10.4658 5.36663 10.4161 5.56261C10.3664 5.75858 10.3965 5.96627 10.5 6.13999L11.24 7.36999C11.2594 7.40881 11.2694 7.4516 11.2694 7.49499C11.2694 7.53837 11.2594 7.58117 11.24 7.61999C11.2184 7.65944 11.1866 7.69234 11.1478 7.71522C11.1091 7.7381 11.065 7.75011 11.02 7.74999H8.28998C8.24622 7.74821 8.20361 7.73541 8.16612 7.71277C8.12862 7.69013 8.09746 7.65838 8.07551 7.62047C8.05357 7.58257 8.04155 7.53973 8.04059 7.49594C8.03962 7.45215 8.04973 7.40883 8.06998 7.36999L8.80998 6.13999C8.91327 5.97021 8.94496 5.76638 8.89809 5.57326C8.85121 5.38014 8.72961 5.21352 8.55998 5.10999ZM24.14 18.17C24.2119 17.851 24.16 17.5166 23.9948 17.2344C23.8296 16.9523 23.5634 16.7434 23.25 16.65L19.5 15.56C19.4481 15.5448 19.4024 15.5133 19.37 15.47C19.3375 15.4267 19.32 15.3741 19.32 15.32V10.75C19.32 10.4848 19.2146 10.2304 19.0271 10.0429C18.8396 9.85535 18.5852 9.74999 18.32 9.74999C18.0548 9.74999 17.8004 9.85535 17.6129 10.0429C17.4253 10.2304 17.32 10.4848 17.32 10.75V17.81C17.32 17.8641 17.3024 17.9167 17.27 17.96C17.2375 18.0033 17.1919 18.0348 17.14 18.05C17.0887 18.0639 17.0343 18.0618 16.9843 18.044C16.9342 18.0261 16.8908 17.9933 16.86 17.95C15.38 15.81 13.06 16.49 14.15 18.16L17.15 22.64C17.1709 22.6741 17.2003 22.7023 17.2354 22.7215C17.2705 22.7408 17.31 22.7506 17.35 22.75H23.13C23.1894 22.7488 23.2466 22.7273 23.2921 22.6891C23.3375 22.6509 23.3686 22.5983 23.38 22.54L24.11 18.54L24.14 18.17Z" fill="#3D246A"/>
<path d="M13.33 20.25C13.33 19.9848 13.2247 19.7304 13.0371 19.5429C12.8496 19.3553 12.5952 19.25 12.33 19.25H12.08C12.0137 19.25 11.9501 19.2236 11.9032 19.1768C11.8564 19.1299 11.83 19.0663 11.83 19V18.47C11.8311 18.4132 11.8516 18.3585 11.8879 18.3149C11.9243 18.2713 11.9744 18.2413 12.03 18.23C12.2952 18.2035 12.5391 18.0727 12.7078 17.8664C12.8766 17.6601 12.9565 17.3952 12.93 17.13C12.9035 16.8648 12.7727 16.6209 12.5664 16.4522C12.3601 16.2834 12.0952 16.2035 11.83 16.23H3.33002C3.19741 16.23 3.07023 16.1773 2.97646 16.0835C2.8827 15.9898 2.83002 15.8626 2.83002 15.73V3.72998C2.83002 3.59737 2.8827 3.4702 2.97646 3.37643C3.07023 3.28266 3.19741 3.22998 3.33002 3.22998H21.33C21.4626 3.22998 21.5898 3.28266 21.6836 3.37643C21.7773 3.4702 21.83 3.59737 21.83 3.72998V14.23C21.83 14.4952 21.9354 14.7496 22.1229 14.9371C22.3104 15.1246 22.5648 15.23 22.83 15.23C23.0952 15.23 23.3496 15.1246 23.5371 14.9371C23.7247 14.7496 23.83 14.4952 23.83 14.23V3.22998C23.83 2.69955 23.6193 2.19084 23.2442 1.81577C22.8692 1.44069 22.3605 1.22998 21.83 1.22998H2.83002C2.29958 1.22998 1.79088 1.44069 1.4158 1.81577C1.04073 2.19084 0.830017 2.69955 0.830017 3.22998V16.23C0.830017 16.7604 1.04073 17.2691 1.4158 17.6442C1.79088 18.0193 2.29958 18.23 2.83002 18.23H9.58002C9.64632 18.23 9.70991 18.2563 9.75679 18.3032C9.80368 18.3501 9.83002 18.4137 9.83002 18.48V19C9.83002 19.0663 9.80368 19.1299 9.75679 19.1768C9.70991 19.2236 9.64632 19.25 9.58002 19.25H7.33002C7.0648 19.25 6.81045 19.3553 6.62291 19.5429C6.43537 19.7304 6.33002 19.9848 6.33002 20.25C6.33002 20.5152 6.43537 20.7696 6.62291 20.9571C6.81045 21.1446 7.0648 21.25 7.33002 21.25H12.33C12.5952 21.25 12.8496 21.1446 13.0371 20.9571C13.2247 20.7696 13.33 20.5152 13.33 20.25Z" fill="#3D246A"/>
</g>
<defs>
<clipPath id="clip0_565_1558">
<rect width="24" height="24" fill="white" transform="translate(0.5)"/>
</clipPath>
</defs>
</svg>
