<svg width="32" height="32" viewBox="0 0 32 32" fill="none" xmlns="http://www.w3.org/2000/svg">
<path d="M15.9991 27.2006C16.4235 27.2006 16.8305 27.3692 17.1305 27.6692C17.4306 27.9693 17.5992 28.3763 17.5992 28.8007V30.4008C17.5992 30.8251 17.4306 31.2321 17.1305 31.5322C16.8305 31.8323 16.4235 32.0009 15.9991 32.0009C15.5747 32.0009 15.1678 31.8323 14.8677 31.5322C14.5676 31.2321 14.399 30.8251 14.399 30.4008V28.8007C14.399 28.3763 14.5676 27.9693 14.8677 27.6692C15.1678 27.3692 15.5747 27.2006 15.9991 27.2006ZM26.1821 23.9204L27.3133 25.0517C27.6048 25.3534 27.7661 25.7576 27.7624 26.1772C27.7588 26.5967 27.5905 26.998 27.2938 27.2947C26.9972 27.5914 26.5959 27.7596 26.1763 27.7633C25.7568 27.7669 25.3526 27.6057 25.0508 27.3142L23.9196 26.1829C23.6281 25.8811 23.4668 25.477 23.4705 25.0574C23.4741 24.6379 23.6424 24.2366 23.939 23.9399C24.2357 23.6432 24.637 23.4749 25.0566 23.4713C25.4761 23.4676 25.8803 23.6289 26.1821 23.9204ZM5.81615 23.9204C6.1041 23.6334 6.49048 23.4668 6.89682 23.4544C7.30317 23.442 7.699 23.5847 8.00392 23.8536C8.30884 24.1225 8.49999 24.4973 8.53854 24.902C8.57709 25.3067 8.46016 25.7109 8.21148 26.0325L8.07868 26.1829L6.94741 27.3142C6.65946 27.6012 6.27308 27.7678 5.86674 27.7802C5.4604 27.7926 5.06457 27.6499 4.75965 27.381C4.45472 27.1121 4.26358 26.7373 4.22502 26.3326C4.18647 25.9279 4.30341 25.5237 4.55208 25.2021L4.68489 25.0517L5.81615 23.9204ZM15.9991 6.39939C18.5453 6.39939 20.9873 7.41088 22.7877 9.21133C24.5882 11.0118 25.5996 13.4537 25.5996 15.9999C25.5996 18.5462 24.5882 20.9881 22.7877 22.7886C20.9873 24.589 18.5453 25.6005 15.9991 25.6005C13.4529 25.6005 11.011 24.589 9.21051 22.7886C7.41006 20.9881 6.39858 18.5462 6.39858 15.9999C6.39858 13.4537 7.41006 11.0118 9.21051 9.21133C11.011 7.41088 13.4529 6.39939 15.9991 6.39939ZM15.9991 9.59958C14.3016 9.59958 12.6737 10.2739 11.4734 11.4742C10.2731 12.6745 9.59876 14.3025 9.59876 15.9999C9.59876 17.6974 10.2731 19.3254 11.4734 20.5257C12.6737 21.726 14.3016 22.4003 15.9991 22.4003C17.6966 22.4003 19.3245 21.726 20.5248 20.5257C21.7251 19.3254 22.3995 17.6974 22.3995 15.9999C22.3995 14.3025 21.7251 12.6745 20.5248 11.4742C19.3245 10.2739 17.6966 9.59958 15.9991 9.59958ZM3.1984 14.3999C3.60623 14.4003 3.9985 14.5565 4.29505 14.8364C4.59161 15.1164 4.77007 15.499 4.79397 15.9062C4.81787 16.3133 4.68541 16.7142 4.42365 17.0269C4.16189 17.3397 3.79059 17.5407 3.38562 17.5888L3.1984 17.6H1.59832C1.19049 17.5996 0.79822 17.4434 0.501666 17.1635C0.205112 16.8835 0.0266529 16.5008 0.00275221 16.0937C-0.0211485 15.6866 0.111313 15.2857 0.373072 14.973C0.634831 14.6602 1.00613 14.4592 1.41111 14.4111L1.59832 14.3999H3.1984ZM30.3999 14.3999C30.8243 14.3999 31.2313 14.5684 31.5313 14.8685C31.8314 15.1686 32 15.5756 32 15.9999C32 16.4243 31.8314 16.8313 31.5313 17.1314C31.2313 17.4315 30.8243 17.6 30.3999 17.6H28.7998C28.3755 17.6 27.9685 17.4315 27.6684 17.1314C27.3683 16.8313 27.1997 16.4243 27.1997 15.9999C27.1997 15.5756 27.3683 15.1686 27.6684 14.8685C27.9685 14.5684 28.3755 14.3999 28.7998 14.3999H30.3999ZM4.68489 4.68569C4.96041 4.41019 5.32699 4.2447 5.71585 4.22024C6.10472 4.19579 6.48914 4.31407 6.797 4.55289L6.94741 4.68569L8.07868 5.81696C8.36565 6.10491 8.53226 6.49129 8.54467 6.89763C8.55707 7.30398 8.41435 7.69981 8.14548 8.00473C7.87661 8.30965 7.50176 8.5008 7.09706 8.53935C6.69236 8.5779 6.28816 8.46097 5.96656 8.2123L5.81615 8.07949L4.68489 6.94822C4.38492 6.64816 4.2164 6.24124 4.2164 5.81696C4.2164 5.39267 4.38492 4.98575 4.68489 4.68569ZM27.3133 4.68569C27.6133 4.98575 27.7818 5.39267 27.7818 5.81696C27.7818 6.24124 27.6133 6.64816 27.3133 6.94822L26.1821 8.07949C26.0345 8.23231 25.8579 8.35421 25.6627 8.43807C25.4675 8.52193 25.2575 8.56607 25.0451 8.56792C24.8326 8.56976 24.6219 8.52928 24.4253 8.44882C24.2286 8.36837 24.05 8.24956 23.8997 8.09932C23.7495 7.94908 23.6307 7.77043 23.5502 7.57378C23.4698 7.37714 23.4293 7.16644 23.4311 6.95398C23.433 6.74152 23.4771 6.53156 23.561 6.33634C23.6448 6.14112 23.7667 5.96456 23.9196 5.81696L25.0508 4.68569C25.3509 4.38572 25.7578 4.21721 26.1821 4.21721C26.6064 4.21721 27.0133 4.38572 27.3133 4.68569ZM15.9991 -0.000976562C16.4235 -0.000976562 16.8305 0.167604 17.1305 0.467679C17.4306 0.767755 17.5992 1.17474 17.5992 1.59912V3.19921C17.5992 3.62358 17.4306 4.03057 17.1305 4.33064C16.8305 4.63072 16.4235 4.7993 15.9991 4.7993C15.5747 4.7993 15.1678 4.63072 14.8677 4.33064C14.5676 4.03057 14.399 3.62358 14.399 3.19921V1.59912C14.399 1.17474 14.5676 0.767755 14.8677 0.467679C15.1678 0.167604 15.5747 -0.000976562 15.9991 -0.000976562Z" fill="#9747FF"/>
</svg>
