<svg width="25" height="24" viewBox="0 0 25 24" fill="none" xmlns="http://www.w3.org/2000/svg">
<g clip-path="url(#clip0_565_1515)">
<path d="M13.5 2C19.5753 2 24.5 6.9247 24.5 13C24.5 19.0753 19.5753 24 13.5 24C11.6278 24.0026 9.78609 23.5255 8.15071 22.614L7.81521 22.4182L4.48001 23.3994C4.29851 23.4529 4.10636 23.4591 3.92178 23.4175C3.73719 23.3759 3.56628 23.2879 3.42526 23.1617C3.28424 23.0356 3.17777 22.8755 3.11595 22.6967C3.05413 22.5179 3.039 22.3262 3.07201 22.1399L3.10061 22.02L4.08181 18.6848C3.04457 16.9702 2.49746 15.0039 2.50001 13C2.50001 6.9247 7.42471 2 13.5 2ZM13.5 4.2C11.9244 4.19971 10.3776 4.62246 9.02117 5.42409C7.66473 6.22573 6.5484 7.37684 5.78875 8.75723C5.02909 10.1376 4.65399 11.6966 4.7026 13.2715C4.75121 14.8464 5.22176 16.3793 6.06511 17.7102C6.28291 18.0534 6.37641 18.4758 6.30271 18.8949L6.25981 19.0742L5.77471 20.7253L7.42581 20.2402C7.90211 20.0994 8.39711 20.1852 8.78981 20.4349C9.94297 21.1651 11.2502 21.617 12.6081 21.7549C13.966 21.8929 15.3373 21.7131 16.6138 21.2297C17.8902 20.7464 19.0367 19.9728 19.9627 18.97C20.8886 17.9672 21.5687 16.7628 21.949 15.452C22.3293 14.1412 22.3995 12.7598 22.154 11.4172C21.9085 10.0746 21.354 8.80746 20.5345 7.71601C19.7149 6.62457 18.6527 5.73871 17.4319 5.12849C16.211 4.51826 14.8649 4.20039 13.5 4.2ZM10.3122 7.7024C10.4341 7.6502 10.5674 7.63036 10.6992 7.64482C10.8311 7.65927 10.9569 7.70752 11.0646 7.7849C11.619 8.1897 12.059 8.7331 12.4374 9.2633L12.7971 9.7847L12.9654 10.0322C13.0629 10.1741 13.1107 10.3441 13.1016 10.516C13.0924 10.6879 13.0268 10.8519 12.9148 10.9826L12.8323 11.0662L11.8159 11.8208C11.7675 11.8567 11.7336 11.9086 11.72 11.9673C11.7065 12.0259 11.7144 12.0875 11.7422 12.1409C11.9732 12.5589 12.3813 13.1826 12.8499 13.6512C13.3196 14.1198 13.9719 14.5554 14.4185 14.8117C14.5153 14.8667 14.6319 14.8491 14.7111 14.7776L14.7529 14.7281L15.414 13.7216C15.5352 13.5597 15.7145 13.4511 15.9141 13.4187C16.1137 13.3863 16.3181 13.4326 16.4843 13.5478L17.0816 13.9647C17.6756 14.3882 18.2465 14.8436 18.6986 15.4211C18.7822 15.5296 18.8354 15.6585 18.8526 15.7944C18.8698 15.9304 18.8505 16.0684 18.7965 16.1944C18.3609 17.2108 17.2576 18.0765 16.1114 18.0347L15.9365 18.0237L15.7264 18.0039L15.6076 17.9885L15.3458 17.9445C14.3294 17.7531 12.7003 17.1767 11.0118 15.4893C9.32441 13.8008 8.74801 12.1717 8.55661 11.1553L8.51261 10.8935L8.48511 10.6647L8.47081 10.4722L8.46641 10.3897C8.42461 9.2413 9.29471 8.138 10.3122 7.7024Z" fill="#3D246A"/>
</g>
<defs>
<clipPath id="clip0_565_1515">
<rect width="24" height="24" fill="white" transform="translate(0.5)"/>
</clipPath>
</defs>
</svg>
