<svg width="30" height="30" viewBox="0 0 30 30" fill="none" xmlns="http://www.w3.org/2000/svg">
<path d="M28.9346 20.1723C29.2519 19.4163 28.345 18.7723 27.5844 19.1083C26.0637 19.775 24.421 20.1182 22.7606 20.1163C16.2506 20.1163 10.9742 14.9456 10.9742 8.56629C10.9735 6.41263 11.5853 4.30319 12.7382 2.48409C13.18 1.7872 12.6495 0.822759 11.8406 1.02809C5.60443 2.61942 1 8.17585 1 14.7854C1 22.6362 7.49442 29 15.5071 29C21.5737 29 26.7692 25.3522 28.9346 20.1723Z" stroke="white" stroke-width="2"/>
<path d="M20.6168 1.1599C19.7924 0.609236 18.8092 1.59234 19.3584 2.41679L20.3384 3.88678C20.7363 4.48266 20.9487 5.18312 20.9487 5.89966C20.9487 6.6162 20.7363 7.31667 20.3384 7.91255L19.3584 9.38254C18.8092 10.207 19.7939 11.1901 20.6184 10.6394L22.0868 9.65943C22.6827 9.26149 23.3831 9.0491 24.0997 9.0491C24.8162 9.0491 25.5167 9.26149 26.1126 9.65943L27.5826 10.6394C28.407 11.1901 29.3901 10.207 28.8394 9.38254L27.8594 7.91255C27.4615 7.31667 27.2491 6.6162 27.2491 5.89966C27.2491 5.18312 27.4615 4.48266 27.8594 3.88678L28.8394 2.41679C29.3901 1.59234 28.407 0.609236 27.581 1.1599L26.1126 2.1399C25.5167 2.53784 24.8162 2.75023 24.0997 2.75023C23.3831 2.75023 22.6827 2.53784 22.0868 2.1399L20.6168 1.1599Z" stroke="white" stroke-width="2"/>
</svg>
