<svg width="32" height="32" viewBox="0 0 32 32" fill="none" xmlns="http://www.w3.org/2000/svg">
<path d="M15.9991 27.2016C16.4235 27.2016 16.8305 27.3701 17.1305 27.6702C17.4306 27.9703 17.5992 28.3773 17.5992 28.8017V30.4017C17.5992 30.8261 17.4306 31.2331 17.1305 31.5332C16.8305 31.8333 16.4235 32.0018 15.9991 32.0018C15.5747 32.0018 15.1678 31.8333 14.8677 31.5332C14.5676 31.2331 14.399 30.8261 14.399 30.4017V28.8017C14.399 28.3773 14.5676 27.9703 14.8677 27.6702C15.1678 27.3701 15.5747 27.2016 15.9991 27.2016ZM26.1821 23.9214L27.3133 25.0526C27.6048 25.3544 27.7661 25.7586 27.7624 26.1781C27.7588 26.5977 27.5905 26.999 27.2938 27.2957C26.9972 27.5923 26.5959 27.7606 26.1763 27.7643C25.7568 27.7679 25.3526 27.6066 25.0508 27.3152L23.9196 26.1839C23.6281 25.8821 23.4668 25.4779 23.4705 25.0584C23.4741 24.6389 23.6424 24.2375 23.939 23.9409C24.2357 23.6442 24.637 23.4759 25.0566 23.4723C25.4761 23.4686 25.8803 23.6299 26.1821 23.9214ZM5.81615 23.9214C6.1041 23.6344 6.49048 23.4678 6.89682 23.4554C7.30317 23.443 7.699 23.5857 8.00392 23.8546C8.30884 24.1234 8.49999 24.4983 8.53854 24.903C8.57709 25.3077 8.46016 25.7119 8.21148 26.0335L8.07868 26.1839L6.94741 27.3152C6.65946 27.6021 6.27308 27.7688 5.86674 27.7812C5.4604 27.7936 5.06457 27.6508 4.75965 27.382C4.45472 27.1131 4.26358 26.7383 4.22502 26.3336C4.18647 25.9289 4.30341 25.5247 4.55208 25.203L4.68489 25.0526L5.81615 23.9214ZM15.9991 6.40037C18.5453 6.40037 20.9873 7.41185 22.7877 9.2123C24.5882 11.0128 25.5996 13.4547 25.5996 16.0009C25.5996 18.5471 24.5882 20.9891 22.7877 22.7895C20.9873 24.59 18.5453 25.6015 15.9991 25.6015C13.4529 25.6015 11.011 24.59 9.21051 22.7895C7.41006 20.9891 6.39858 18.5471 6.39858 16.0009C6.39858 13.4547 7.41006 11.0128 9.21051 9.2123C11.011 7.41185 13.4529 6.40037 15.9991 6.40037ZM15.9991 9.60055C14.3016 9.60055 12.6737 10.2749 11.4734 11.4752C10.2731 12.6755 9.59876 14.3034 9.59876 16.0009C9.59876 17.6984 10.2731 19.3264 11.4734 20.5267C12.6737 21.727 14.3016 22.4013 15.9991 22.4013C17.6966 22.4013 19.3245 21.727 20.5248 20.5267C21.7251 19.3264 22.3995 17.6984 22.3995 16.0009C22.3995 14.3034 21.7251 12.6755 20.5248 11.4752C19.3245 10.2749 17.6966 9.60055 15.9991 9.60055ZM3.1984 14.4008C3.60623 14.4013 3.9985 14.5574 4.29505 14.8374C4.59161 15.1174 4.77007 15.5 4.79397 15.9071C4.81787 16.3143 4.68541 16.7152 4.42365 17.0279C4.16189 17.3407 3.79059 17.5416 3.38562 17.5898L3.1984 17.601H1.59832C1.19049 17.6006 0.79822 17.4444 0.501666 17.1644C0.205112 16.8845 0.0266529 16.5018 0.00275221 16.0947C-0.0211485 15.6876 0.111313 15.2867 0.373072 14.9739C0.634831 14.6612 1.00613 14.4602 1.41111 14.412L1.59832 14.4008H3.1984ZM30.3999 14.4008C30.8243 14.4008 31.2313 14.5694 31.5313 14.8695C31.8314 15.1696 32 15.5765 32 16.0009C32 16.4253 31.8314 16.8323 31.5313 17.1324C31.2313 17.4324 30.8243 17.601 30.3999 17.601H28.7998C28.3755 17.601 27.9685 17.4324 27.6684 17.1324C27.3683 16.8323 27.1997 16.4253 27.1997 16.0009C27.1997 15.5765 27.3683 15.1696 27.6684 14.8695C27.9685 14.5694 28.3755 14.4008 28.7998 14.4008H30.3999ZM4.68489 4.68667C4.96041 4.41117 5.32699 4.24567 5.71585 4.22122C6.10472 4.19677 6.48914 4.31505 6.797 4.55386L6.94741 4.68667L8.07868 5.81793C8.36565 6.10588 8.53226 6.49227 8.54467 6.89861C8.55707 7.30495 8.41435 7.70078 8.14548 8.00571C7.87661 8.31063 7.50176 8.50178 7.09706 8.54033C6.69236 8.57888 6.28816 8.46194 5.96656 8.21327L5.81615 8.08046L4.68489 6.9492C4.38492 6.64914 4.2164 6.24222 4.2164 5.81793C4.2164 5.39365 4.38492 4.98673 4.68489 4.68667ZM27.3133 4.68667C27.6133 4.98673 27.7818 5.39365 27.7818 5.81793C27.7818 6.24222 27.6133 6.64914 27.3133 6.9492L26.1821 8.08046C26.0345 8.23329 25.8579 8.35519 25.6627 8.43905C25.4675 8.52291 25.2575 8.56705 25.0451 8.56889C24.8326 8.57074 24.6219 8.53025 24.4253 8.4498C24.2286 8.36935 24.05 8.25053 23.8997 8.1003C23.7495 7.95006 23.6307 7.77141 23.5502 7.57476C23.4698 7.37812 23.4293 7.16742 23.4311 6.95496C23.433 6.7425 23.4771 6.53253 23.561 6.33732C23.6448 6.1421 23.7667 5.96554 23.9196 5.81793L25.0508 4.68667C25.3509 4.3867 25.7578 4.21818 26.1821 4.21818C26.6064 4.21818 27.0133 4.3867 27.3133 4.68667ZM15.9991 0C16.4235 0 16.8305 0.168581 17.1305 0.468656C17.4306 0.768731 17.5992 1.17572 17.5992 1.60009V3.20018C17.5992 3.62455 17.4306 4.03154 17.1305 4.33162C16.8305 4.63169 16.4235 4.80028 15.9991 4.80028C15.5747 4.80028 15.1678 4.63169 14.8677 4.33162C14.5676 4.03154 14.399 3.62455 14.399 3.20018V1.60009C14.399 1.17572 14.5676 0.768731 14.8677 0.468656C15.1678 0.168581 15.5747 0 15.9991 0Z" fill="#9747FF"/>
</svg>
